<svg width="21" height="21" viewBox="0 0 21 21" fill="none" xmlns="http://www.w3.org/2000/svg">
<path d="M15.5156 11.5378V9.56909H11.4844V5.53784H9.51562V9.56909H5.48438V11.5378H9.51562V15.5691H11.4844V11.5378H15.5156ZM3.42188 3.52222C5.39062 1.55347 7.75 0.569092 10.5 0.569092C13.25 0.569092 15.5938 1.55347 17.5312 3.52222C19.5 5.45972 20.4844 7.80347 20.4844 10.5535C20.4844 13.3035 19.5 15.6628 17.5312 17.6316C15.5938 19.5691 13.25 20.5378 10.5 20.5378C7.75 20.5378 5.39062 19.5691 3.42188 17.6316C1.48438 15.6628 0.515625 13.3035 0.515625 10.5535C0.515625 7.80347 1.48438 5.45972 3.42188 3.52222Z" fill="#B872FF"/>
</svg>
